<svg width="20" height="21" viewBox="0 0 20 21" fill="none" xmlns="http://www.w3.org/2000/svg">
<path d="M20 2.14744V17.8953C20 19.0809 19.0402 20.0427 17.8571 20.0427H14.0491V12.1151H16.7545L17.1429 9.09081H14.0491V7.15812C14.0491 6.28125 14.2902 5.68623 15.5446 5.68623H17.1429V2.98404C16.8661 2.94825 15.9196 2.86325 14.8125 2.86325C12.5089 2.86325 10.9286 4.2725 10.9286 6.86285V9.09529H8.21429V12.1196H10.933V20.0427H2.14286C0.959821 20.0427 0 19.0809 0 17.8953V2.14744C0 0.961872 0.959821 0 2.14286 0H17.8571C19.0402 0 20 0.961872 20 2.14744Z" fill="#7A9BED"/>
</svg>
