<svg width="99" height="14" viewBox="0 0 99 14" fill="none" xmlns="http://www.w3.org/2000/svg">
<path d="M3.98395 3.06V6.14H10.2013V9.2H3.98395V14H0V0H11.0464V3.06H3.98395Z" fill="white"/>
<path d="M23.0908 10.28H20.9178V14H16.9338V0H23.3725C24.6469 0 25.7535 0.213333 26.6925 0.64C27.6315 1.05333 28.3558 1.65333 28.8656 2.44C29.3753 3.21333 29.6302 4.12667 29.6302 5.18C29.6302 6.19333 29.3887 7.08 28.9058 7.84C28.4363 8.58667 27.7589 9.17333 26.8736 9.6L29.9118 14H25.6462L23.0908 10.28ZM25.606 5.18C25.606 4.52667 25.398 4.02 24.9822 3.66C24.5664 3.3 23.9493 3.12 23.1311 3.12H20.9178V7.22H23.1311C23.9493 7.22 24.5664 7.04667 24.9822 6.7C25.398 6.34 25.606 5.83333 25.606 5.18Z" fill="white"/>
<path d="M35.8522 0H39.8362V14H35.8522V0Z" fill="white"/>
<path d="M58.0028 10.94V14H46.6948V0H57.7412V3.06H50.6385V5.42H56.8961V8.38H50.6385V10.94H58.0028Z" fill="white"/>
<path d="M77.6383 0V14H74.3586L68.1412 6.54V14H64.2377V0H67.5175L73.7348 7.46V0H77.6383Z" fill="white"/>
<path d="M84.4727 0H91.1327C92.6753 0 94.0435 0.286667 95.2374 0.860001C96.4312 1.43333 97.3568 2.24667 98.0141 3.3C98.6714 4.35333 99 5.58667 99 7C99 8.41333 98.6714 9.64667 98.0141 10.7C97.3568 11.7533 96.4312 12.5667 95.2374 13.14C94.0435 13.7133 92.6753 14 91.1327 14H84.4727V0ZM90.9717 10.84C92.179 10.84 93.1448 10.5 93.8692 9.82C94.6069 9.14 94.9758 8.2 94.9758 7C94.9758 5.8 94.6069 4.86 93.8692 4.18C93.1448 3.5 92.179 3.16 90.9717 3.16H88.4566V10.84H90.9717Z" fill="white"/>
</svg>
