<svg width="20" height="21" viewBox="0 0 20 21" fill="none" xmlns="http://www.w3.org/2000/svg">
<path d="M20 10.4308C20 9.59184 19.9319 8.97959 19.7846 8.34468H10.2041V12.1315H15.8276C15.7143 13.0726 15.102 14.4898 13.7415 15.4421L13.7224 15.5689L16.7516 17.9156L16.9614 17.9365C18.8888 16.1564 20 13.5374 20 10.4308Z" fill="#FE6F6F"/>
<path d="M10.2041 20.4082C12.9591 20.4082 15.272 19.5011 16.9614 17.9365L13.7415 15.4421C12.8798 16.043 11.7233 16.4625 10.2041 16.4625C7.50568 16.4625 5.21545 14.6825 4.39905 12.2222L4.27938 12.2324L1.1296 14.67L1.08841 14.7845C2.7664 18.1179 6.21312 20.4082 10.2041 20.4082Z" fill="#FE6F6F"/>
<path d="M4.39905 12.2222C4.18363 11.5873 4.05897 10.907 4.05897 10.2041C4.05897 9.50109 4.18363 8.82084 4.38772 8.18593L4.38201 8.05071L1.19276 5.57391L1.08841 5.62354C0.39683 7.00678 0 8.56009 0 10.2041C0 11.8481 0.396829 13.4013 1.08841 14.7845L4.39905 12.2222Z" fill="#FE6F6F"/>
<path d="M10.2041 3.94555C12.1201 3.94555 13.4126 4.77321 14.1496 5.46487L17.0294 2.65306C15.2608 1.00907 12.9591 0 10.2041 0C6.21312 0 2.7664 2.29023 1.08841 5.62354L4.38772 8.18593C5.21545 5.72562 7.50568 3.94555 10.2041 3.94555Z" fill="#FE6F6F"/>
</svg>
