<svg width="19" height="14" viewBox="0 0 19 14" fill="none" xmlns="http://www.w3.org/2000/svg">
<path d="M6.77519 2.04167C6.77519 3.16925 5.81903 4.08333 4.63953 4.08333C3.46004 4.08333 2.50388 3.16925 2.50388 2.04167C2.50388 0.914085 3.46004 0 4.63953 0C5.81903 0 6.77519 0.914085 6.77519 2.04167Z" fill="white"/>
<path d="M16.6434 2.04167C16.6434 3.16925 15.7202 4.08333 14.5814 4.08333C13.4426 4.08333 12.5194 3.16925 12.5194 2.04167C12.5194 0.914085 13.4426 0 14.5814 0C15.7202 0 16.6434 0.914085 16.6434 2.04167Z" fill="white"/>
<path d="M9.816 11.7554C11.0463 12.949 12.552 14 14.5633 14C17.471 14 18.9916 11.8207 19 9.66596C19 7.52762 17.4459 5.25 14.5633 5.25C12.5579 5.25 11.0574 6.32944 9.76626 7.58765L7.6531 9.82425C7.62983 9.84889 7.60325 9.86864 7.57468 9.88345C6.56056 10.9012 5.54729 11.6978 4.36148 11.6978C2.78232 11.6978 2.3562 10.3706 2.3562 9.58403C2.3562 9.24813 2.44811 7.56039 4.36148 7.56039C5.51391 7.56039 6.45354 8.25595 7.41264 9.22489L9.01458 7.52936C7.76874 6.30183 6.3197 5.25 4.36148 5.25C1.4956 5.25 0 7.42931 0 9.58403C0 11.7224 1.52902 14 4.36983 14C6.39037 14 7.90348 12.8489 9.212 11.5437L10.9771 9.64615C11.0052 9.61599 11.0382 9.59301 11.0738 9.57732C12.1618 8.45568 13.2545 7.56039 14.5633 7.56039C16.2093 7.56039 16.6438 8.88764 16.6438 9.67416C16.6438 10.6081 16.1007 11.6978 14.5633 11.6978C13.3749 11.6978 12.444 11.0762 11.4008 10.0518L9.816 11.7554Z" fill="white"/>
</svg>
